<svg xmlns="http://www.w3.org/2000/svg" viewBox="0 0 800 790.4909560723515" style="background-color: white;">
<style>.txt { font-family: sans-serif; font-size: 12px; } .label { font-weight: bold; font-size: 10px; }</style>
<path d="M 402.9285099052541,402.13608957795014 Q 333.43669250645996,561.3781223083549 392.93712316968134,724.6167097329889" fill="none" stroke="#e377c2" stroke-width="2" stroke-dasharray="5,5" opacity="0.8" />
<text x="333.43669250645996" y="561.3781223083549" fill="#e377c2" class="txt" font-weight="bold">D1</text>
<path d="M 402.9285099052541,402.13608957795014 Q 535.1593453919036,502.1877691645135 699.9138673557279,483.4453057708873" fill="none" stroke="#e377c2" stroke-width="2" stroke-dasharray="5,5" opacity="0.8" />
<text x="535.1593453919036" y="502.1877691645135" fill="#e377c2" class="txt" font-weight="bold">D1</text>
<polyline points="402.9285099052541,402.13608957795014 467.7002583979329,723.9276485788115 392.93712316968134,724.6167097329889 708.8716623600344,650.1981050818262 699.9138673557279,483.4453057708873 733.3333333333334,342.5322997416022 703.0146425495263,214.7114556416883 666.4944013781222,255.36606373815687 495.26270456503016,599.8966408268735 160.0344530577089,713.9362618432386 185.1851851851852,535.1248923341948 102.1533161068045,570.6115417743325 155.2110249784669,368.71662360034463 460.1205857019811,218.84582256675287 673.3850129198968,554.7631352282516 652.0241171403962,719.1042204995695 402.9285099052541,402.13608957795014" fill="none" stroke="#1f77b4" stroke-width="2" />
<circle cx="435.31438415159346" cy="563.0318690783809" r="2" fill="#1f77b4" />
<text x="435.31438415159346" y="558.0318690783809" fill="#1f77b4" class="txt" font-weight="bold">T0</text>
<circle cx="430.31869078380714" cy="724.2721791559002" r="2" fill="#1f77b4" />
<circle cx="550.9043927648579" cy="687.4074074074075" r="2" fill="#1f77b4" />
<circle cx="704.3927648578812" cy="566.8217054263567" r="2" fill="#1f77b4" />
<circle cx="716.6236003445306" cy="412.9888027562447" r="2" fill="#1f77b4" />
<circle cx="718.1739879414299" cy="278.62187769164524" r="2" fill="#1f77b4" />
<circle cx="684.7545219638243" cy="235.03875968992259" r="2" fill="#1f77b4" />
<circle cx="580.8785529715763" cy="427.6313522825152" r="2" fill="#1f77b4" />
<circle cx="327.64857881136953" cy="656.9164513350561" r="2" fill="#1f77b4" />
<circle cx="172.60981912144706" cy="624.5305770887167" r="2" fill="#1f77b4" />
<circle cx="143.66925064599485" cy="552.8682170542636" r="2" fill="#1f77b4" />
<circle cx="128.6821705426357" cy="469.6640826873386" r="2" fill="#1f77b4" />
<circle cx="307.665805340224" cy="293.78122308354875" r="2" fill="#1f77b4" />
<circle cx="566.7527993109389" cy="386.80447889750224" r="2" fill="#1f77b4" />
<circle cx="662.7045650301466" cy="636.9336778639106" r="2" fill="#1f77b4" />
<circle cx="527.4763135228252" cy="560.6201550387598" r="2" fill="#1f77b4" />
<polyline points="402.9285099052541,402.13608957795014 705.770887166236,505.15073212747643 399.13867355727825,97.57105943152453 410.8527131782946,171.98966408268745 525.5813953488373,170.61154177433264 623.083548664944,158.20844099913893 650.3014642549526,190.24978466838945 627.5624461670974,341.84323858742476 502.84237726098195,390.4220499569338 160.3789836347976,280.5167958656332 159.34539190353146,250.8871662360035 166.92506459948325,65.87424633936257 153.14384151593455,103.42807924203282 69.0783807062877,147.5279931093886 66.66666666666667,417.29543496985366 727.4763135228253,580.2583979328166 402.9285099052541,402.13608957795014" fill="none" stroke="#2ca02c" stroke-width="2" />
<circle cx="554.349698535745" cy="453.64341085271326" r="2" fill="#2ca02c" />
<text x="554.349698535745" y="448.64341085271326" fill="#2ca02c" class="txt" font-weight="bold">T1</text>
<circle cx="552.4547803617571" cy="301.3608957795005" r="2" fill="#2ca02c" />
<circle cx="404.99569336778643" cy="134.780361757106" r="2" fill="#2ca02c" />
<circle cx="468.21705426356596" cy="171.30060292851005" r="2" fill="#2ca02c" />
<circle cx="574.3324720068906" cy="164.40999138673578" r="2" fill="#2ca02c" />
<circle cx="636.6925064599484" cy="174.2291128337642" r="2" fill="#2ca02c" />
<circle cx="638.9319552110251" cy="266.0465116279071" r="2" fill="#2ca02c" />
<circle cx="565.2024117140397" cy="366.1326442721793" r="2" fill="#2ca02c" />
<circle cx="331.61068044788976" cy="335.46942291128346" r="2" fill="#2ca02c" />
<circle cx="159.86218776916454" cy="265.70198105081835" r="2" fill="#2ca02c" />
<circle cx="163.13522825150736" cy="158.38070628768304" r="2" fill="#2ca02c" />
<circle cx="160.0344530577089" cy="84.6511627906977" r="2" fill="#2ca02c" />
<circle cx="111.11111111111113" cy="125.47803617571071" r="2" fill="#2ca02c" />
<circle cx="67.8725236864772" cy="282.41171403962113" r="2" fill="#2ca02c" />
<circle cx="397.07149009474597" cy="498.7769164513351" r="2" fill="#2ca02c" />
<circle cx="565.2024117140397" cy="491.1972437553834" r="2" fill="#2ca02c" />
<rect x="392.9285099052541" y="392.13608957795014" width="20" height="20" fill="black" />
<text x="402.9285099052541" y="387.13608957795014" text-anchor="middle" class="label">DEPOT</text>
<circle cx="623.083548664944" cy="158.20844099913893" r="6" fill="lightblue" stroke="black" stroke-width="1"/>
<text x="623.083548664944" y="150.20844099913893" text-anchor="middle" class="label">1</text>
<circle cx="673.3850129198968" cy="554.7631352282516" r="6" fill="lightblue" stroke="black" stroke-width="1"/>
<text x="673.3850129198968" y="546.7631352282516" text-anchor="middle" class="label">2</text>
<circle cx="467.7002583979329" cy="723.9276485788115" r="6" fill="lightblue" stroke="black" stroke-width="1"/>
<text x="467.7002583979329" y="715.9276485788115" text-anchor="middle" class="label">3</text>
<circle cx="410.8527131782946" cy="171.98966408268745" r="6" fill="lightblue" stroke="black" stroke-width="1"/>
<text x="410.8527131782946" y="163.98966408268745" text-anchor="middle" class="label">4</text>
<circle cx="699.9138673557279" cy="483.4453057708873" r="6" fill="lightblue" stroke="black" stroke-width="1"/>
<text x="699.9138673557279" y="475.4453057708873" text-anchor="middle" class="label">5</text>
<circle cx="160.0344530577089" cy="713.9362618432386" r="6" fill="lightblue" stroke="black" stroke-width="1"/>
<text x="160.0344530577089" y="705.9362618432386" text-anchor="middle" class="label">6</text>
<circle cx="153.14384151593455" cy="103.42807924203282" r="6" fill="lightblue" stroke="black" stroke-width="1"/>
<text x="153.14384151593455" y="95.42807924203282" text-anchor="middle" class="label">7</text>
<polygon points="66.66666666666667,423.29543496985366 60.66666666666667,411.29543496985366 72.66666666666667,411.29543496985366" fill="lightyellow" stroke="black" stroke-width="1"/>
<text x="66.66666666666667" y="409.29543496985366" text-anchor="middle" class="label">8</text>
<circle cx="495.26270456503016" cy="599.8966408268735" r="6" fill="lightblue" stroke="black" stroke-width="1"/>
<text x="495.26270456503016" y="591.8966408268735" text-anchor="middle" class="label">9</text>
<circle cx="703.0146425495263" cy="214.7114556416883" r="6" fill="lightblue" stroke="black" stroke-width="1"/>
<text x="703.0146425495263" y="206.7114556416883" text-anchor="middle" class="label">10</text>
<circle cx="733.3333333333334" cy="342.5322997416022" r="6" fill="lightblue" stroke="black" stroke-width="1"/>
<text x="733.3333333333334" y="334.5322997416022" text-anchor="middle" class="label">11</text>
<circle cx="460.1205857019811" cy="218.84582256675287" r="6" fill="lightblue" stroke="black" stroke-width="1"/>
<text x="460.1205857019811" y="210.84582256675287" text-anchor="middle" class="label">12</text>
<rect x="644.3014642549526" y="184.24978466838945" width="12" height="12" fill="lightgreen" stroke="black" stroke-width="1"/>
<text x="650.3014642549526" y="182.24978466838945" text-anchor="middle" class="label">13</text>
<circle cx="69.0783807062877" cy="147.5279931093886" r="6" fill="lightblue" stroke="black" stroke-width="1"/>
<text x="69.0783807062877" y="139.5279931093886" text-anchor="middle" class="label">14</text>
<circle cx="705.770887166236" cy="505.15073212747643" r="6" fill="lightblue" stroke="black" stroke-width="1"/>
<text x="705.770887166236" y="497.15073212747643" text-anchor="middle" class="label">15</text>
<polygon points="727.4763135228253,586.2583979328166 721.4763135228253,574.2583979328166 733.4763135228253,574.2583979328166" fill="lightyellow" stroke="black" stroke-width="1"/>
<text x="727.4763135228253" y="572.2583979328166" text-anchor="middle" class="label">16</text>
<circle cx="666.4944013781222" cy="255.36606373815687" r="6" fill="lightblue" stroke="black" stroke-width="1"/>
<text x="666.4944013781222" y="247.36606373815687" text-anchor="middle" class="label">17</text>
<polygon points="502.84237726098195,396.4220499569338 496.84237726098195,384.4220499569338 508.84237726098195,384.4220499569338" fill="lightyellow" stroke="black" stroke-width="1"/>
<text x="502.84237726098195" y="382.4220499569338" text-anchor="middle" class="label">18</text>
<circle cx="392.93712316968134" cy="724.6167097329889" r="6" fill="lightblue" stroke="black" stroke-width="1"/>
<text x="392.93712316968134" y="716.6167097329889" text-anchor="middle" class="label">19</text>
<circle cx="708.8716623600344" cy="650.1981050818262" r="6" fill="lightblue" stroke="black" stroke-width="1"/>
<text x="708.8716623600344" y="642.1981050818262" text-anchor="middle" class="label">20</text>
<circle cx="652.0241171403962" cy="719.1042204995695" r="6" fill="lightblue" stroke="black" stroke-width="1"/>
<text x="652.0241171403962" y="711.1042204995695" text-anchor="middle" class="label">21</text>
<circle cx="160.3789836347976" cy="280.5167958656332" r="6" fill="lightblue" stroke="black" stroke-width="1"/>
<text x="160.3789836347976" y="272.5167958656332" text-anchor="middle" class="label">22</text>
<rect x="621.5624461670974" y="335.84323858742476" width="12" height="12" fill="lightgreen" stroke="black" stroke-width="1"/>
<text x="627.5624461670974" y="333.84323858742476" text-anchor="middle" class="label">23</text>
<circle cx="525.5813953488373" cy="170.61154177433264" r="6" fill="lightblue" stroke="black" stroke-width="1"/>
<text x="525.5813953488373" y="162.61154177433264" text-anchor="middle" class="label">24</text>
<circle cx="159.34539190353146" cy="250.8871662360035" r="6" fill="lightblue" stroke="black" stroke-width="1"/>
<text x="159.34539190353146" y="242.8871662360035" text-anchor="middle" class="label">25</text>
<circle cx="185.1851851851852" cy="535.1248923341948" r="6" fill="lightblue" stroke="black" stroke-width="1"/>
<text x="185.1851851851852" y="527.1248923341948" text-anchor="middle" class="label">26</text>
<circle cx="155.2110249784669" cy="368.71662360034463" r="6" fill="lightblue" stroke="black" stroke-width="1"/>
<text x="155.2110249784669" y="360.71662360034463" text-anchor="middle" class="label">27</text>
<circle cx="399.13867355727825" cy="97.57105943152453" r="6" fill="lightblue" stroke="black" stroke-width="1"/>
<text x="399.13867355727825" y="89.57105943152453" text-anchor="middle" class="label">28</text>
<rect x="160.92506459948325" y="59.87424633936257" width="12" height="12" fill="lightgreen" stroke="black" stroke-width="1"/>
<text x="166.92506459948325" y="57.87424633936257" text-anchor="middle" class="label">29</text>
<circle cx="102.1533161068045" cy="570.6115417743325" r="6" fill="lightblue" stroke="black" stroke-width="1"/>
<text x="102.1533161068045" y="562.6115417743325" text-anchor="middle" class="label">30</text>
<rect x="10" y="10" width="150" height="90" fill="white" stroke="black" opacity="0.8"/>
<text x="20" y="30" class="txt">Depot (Square)</text>
<text x="20" y="50" class="txt"><tspan fill="lightblue">●</tspan> C1 Customer</text>
<text x="20" y="70" class="txt"><tspan fill="lightgreen">■</tspan> Pickup (C2)</text>
<text x="20" y="90" class="txt"><tspan fill="lightyellow">▼</tspan> Delivery (C2)</text>
</svg>