<svg xmlns="http://www.w3.org/2000/svg" viewBox="0 0 800 787.1679197994988" style="background-color: white;">
<style>.txt { font-family: sans-serif; font-size: 12px; } .label { font-weight: bold; font-size: 10px; }</style>
<polyline points="400.16708437761065,391.7460317460318 385.79782790309105,457.5772765246451 524.1436925647453,461.5873015873017 532.8320802005012,469.2731829573936 698.5797827903091,470.2756892230577 715.2882205513785,525.4135338345866 733.3333333333333,650.7268170426066 536.1737677527151,671.4452798663326 502.7568922305764,655.405179615706 465.66416040100245,663.7593984962407 460.3174603174603,634.0183792815372 484.71177944862154,714.8872180451128 597.3266499582289,718.8972431077694 610.6934001670844,702.8571428571429 589.6407685881369,652.7318295739349 561.5705931495404,646.0484544695071 535.8395989974938,596.5914786967419 589.9749373433584,439.53216374269016 568.9223057644111,179.2147034252299 256.80868838763575,254.40267335004194 202.3391812865497,446.88387635756067 242.43943191311615,514.3859649122808 290.22556390977445,524.7451963241438 300.9189640768588,620.6516290726818 352.71512113617376,663.4252297410193 303.2581453634085,714.21888053467 215.37176274018378,721.5705931495406 137.84461152882207,685.4803675856308 170.2589807852966,649.7243107769425 166.5831244778613,636.3575605680869 116.79197994987469,598.2623224728488 109.1060985797828,599.264828738513 112.78195488721805,513.3834586466166 115.7894736842105,510.7101086048456 66.66666666666666,501.0192147034253 103.09106098579781,525.4135338345866 183.95989974937342,525.7477025898079 210.35923141186296,593.249791144528 327.65246449456976,548.4711779448622 383.12447786132,509.70760233918134 358.39598997493727,472.94903926482885 451.6290726817042,437.86131996658327 635.7560568086884,314.8872180451129 670.5096073517126,224.32748538011708 714.2857142857142,165.84795321637432 554.21888053467,312.54803675856317 400.16708437761065,391.7460317460318" fill="none" stroke="#1f77b4" stroke-width="2" />
<circle cx="392.98245614035085" cy="424.66165413533844" r="2" fill="#1f77b4" />
<text x="392.98245614035085" y="419.66165413533844" fill="#1f77b4" class="txt" font-weight="bold">T0</text>
<circle cx="454.97076023391816" cy="459.5822890559734" r="2" fill="#1f77b4" />
<circle cx="528.4878863826232" cy="465.43024227234764" r="2" fill="#1f77b4" />
<circle cx="615.7059314954051" cy="469.77443609022566" r="2" fill="#1f77b4" />
<circle cx="706.9340016708438" cy="497.84461152882216" r="2" fill="#1f77b4" />
<circle cx="724.3107769423559" cy="588.0701754385966" r="2" fill="#1f77b4" />
<circle cx="634.7535505430242" cy="661.0860484544696" r="2" fill="#1f77b4" />
<circle cx="519.4653299916457" cy="663.4252297410193" r="2" fill="#1f77b4" />
<circle cx="484.2105263157894" cy="659.5822890559733" r="2" fill="#1f77b4" />
<circle cx="462.9908103592314" cy="648.8888888888889" r="2" fill="#1f77b4" />
<circle cx="472.51461988304095" cy="674.452798663325" r="2" fill="#1f77b4" />
<circle cx="541.0192147034252" cy="716.8922305764411" r="2" fill="#1f77b4" />
<circle cx="604.0100250626567" cy="710.8771929824561" r="2" fill="#1f77b4" />
<circle cx="600.1670843776106" cy="677.7944862155389" r="2" fill="#1f77b4" />
<circle cx="575.6056808688386" cy="649.390142021721" r="2" fill="#1f77b4" />
<circle cx="548.7050960735171" cy="621.3199665831245" r="2" fill="#1f77b4" />
<circle cx="562.907268170426" cy="518.061821219716" r="2" fill="#1f77b4" />
<circle cx="579.4486215538848" cy="309.37343358396004" r="2" fill="#1f77b4" />
<circle cx="412.8654970760234" cy="216.80868838763593" r="2" fill="#1f77b4" />
<circle cx="229.57393483709274" cy="350.6432748538013" r="2" fill="#1f77b4" />
<circle cx="222.38930659983293" cy="480.6349206349207" r="2" fill="#1f77b4" />
<circle cx="266.33249791144533" cy="519.5655806182123" r="2" fill="#1f77b4" />
<circle cx="295.5722639933166" cy="572.6984126984128" r="2" fill="#1f77b4" />
<circle cx="326.8170426065163" cy="642.0384294068506" r="2" fill="#1f77b4" />
<circle cx="327.9866332497911" cy="688.8220551378447" r="2" fill="#1f77b4" />
<circle cx="259.3149540517961" cy="717.8947368421053" r="2" fill="#1f77b4" />
<circle cx="176.60818713450294" cy="703.5254803675857" r="2" fill="#1f77b4" />
<circle cx="154.05179615705933" cy="667.6023391812867" r="2" fill="#1f77b4" />
<circle cx="168.42105263157896" cy="643.0409356725147" r="2" fill="#1f77b4" />
<circle cx="141.687552213868" cy="617.3099415204679" r="2" fill="#1f77b4" />
<circle cx="112.94903926482874" cy="598.7635756056809" r="2" fill="#1f77b4" />
<circle cx="110.94402673350042" cy="556.3241436925648" r="2" fill="#1f77b4" />
<circle cx="114.28571428571428" cy="512.0467836257311" r="2" fill="#1f77b4" />
<circle cx="91.22807017543857" cy="505.86466165413543" r="2" fill="#1f77b4" />
<circle cx="84.87886382623223" cy="513.2163742690059" r="2" fill="#1f77b4" />
<circle cx="143.5254803675856" cy="525.5806182121972" r="2" fill="#1f77b4" />
<circle cx="197.1595655806182" cy="559.4987468671679" r="2" fill="#1f77b4" />
<circle cx="269.00584795321635" cy="570.860484544695" r="2" fill="#1f77b4" />
<circle cx="355.3884711779449" cy="529.0893901420218" r="2" fill="#1f77b4" />
<circle cx="370.7602339181286" cy="491.3283208020051" r="2" fill="#1f77b4" />
<circle cx="405.01253132832073" cy="455.40517961570606" r="2" fill="#1f77b4" />
<circle cx="543.6925647451963" cy="376.3742690058481" r="2" fill="#1f77b4" />
<circle cx="653.1328320802005" cy="269.607351712615" r="2" fill="#1f77b4" />
<circle cx="692.3976608187133" cy="195.0877192982457" r="2" fill="#1f77b4" />
<circle cx="634.2522974101921" cy="239.19799498746875" r="2" fill="#1f77b4" />
<circle cx="477.1929824561403" cy="352.1470342522975" r="2" fill="#1f77b4" />
<polyline points="400.16708437761065,391.7460317460318 399.1645781119465,382.389306599833 439.9331662489557,381.05263157894746 574.6031746031746,371.3617376775273 621.3868003341688,379.7159565580619 616.0401002506266,422.82372598162084 659.1478696741855,421.1528822055139 615.3717627401838,496.6750208855472 664.4945697577276,621.6541353383459 671.8462823725981,460.2506265664161 721.3032581453634,415.13784461152886 722.3057644110276,365.6808688387637 651.4619883040937,339.94987468671684 615.7059314954051,363.34168755221395 608.3542188805347,273.11612364243945 588.9724310776942,258.41269841269843 614.7034252297411,248.38763575605697 683.5421888053468,182.89055973266522 727.9866332497911,65.59732664995829 666.8337510442774,112.71512113617382 623.3918128654972,108.70509607351744 609.3567251461989,124.07685881370094 535.171261487051,132.7652464494572 459.9832915622389,168.52130325814562 417.5438596491228,171.86299081035952 428.23725981620714,94.67000835421902 391.14452798663325,133.4335839598998 274.51963241436926,157.15956558061828 343.0242272347535,259.08103592314126 352.71512113617376,269.77443609022566 313.95154553049287,292.16374269005854 283.2080200501253,377.71094402673356 241.43692564745191,383.0576441102758 252.4644945697577,427.16791979949886 182.2890559732665,427.8362573099416 186.9674185463659,388.404344193818 183.29156223893065,400.76858813700926 184.62823725981622,368.0200501253134 147.20133667502088,272.78195488721815 96.4076858813701,300.5179615705933 75.6892230576441,199.5989974937345 143.85964912280699,95.67251461988326 220.718462823726,77.62740183792846 232.7485380116959,138.44611528822077 272.1804511278195,99.68253968253975 310.2756892230576,242.7067669172934 328.9891395154553,241.70426065162917 396.49122807017545,251.39515455304934 474.6867167919799,312.54803675856317 464.6616541353383,424.49456975772773 474.01837928153714,463.2581453634086 481.37009189640764,476.95906432748546 470.3425229741018,490.6599832915623 453.63408521303256,525.7477025898079 400.16708437761065,473.951545530493 372.09690893901416,419.8162071846283 400.16708437761065,391.7460317460318" fill="none" stroke="#2ca02c" stroke-width="2" />
<circle cx="399.6658312447786" cy="387.06766917293237" r="2" fill="#2ca02c" />
<text x="399.6658312447786" y="382.06766917293237" fill="#2ca02c" class="txt" font-weight="bold">T1</text>
<circle cx="419.5488721804511" cy="381.7209690893902" r="2" fill="#2ca02c" />
<circle cx="507.2681704260651" cy="376.20718462823737" r="2" fill="#2ca02c" />
<circle cx="597.9949874686718" cy="375.5388471177946" r="2" fill="#2ca02c" />
<circle cx="618.7134502923977" cy="401.2698412698414" r="2" fill="#2ca02c" />
<circle cx="637.593984962406" cy="421.98830409356736" r="2" fill="#2ca02c" />
<circle cx="637.2598162071847" cy="458.91395154553055" r="2" fill="#2ca02c" />
<circle cx="639.9331662489558" cy="559.1645781119465" r="2" fill="#2ca02c" />
<circle cx="668.1704260651629" cy="540.952380952381" r="2" fill="#2ca02c" />
<circle cx="696.5747702589808" cy="437.69423558897245" r="2" fill="#2ca02c" />
<circle cx="721.8045112781955" cy="390.40935672514627" r="2" fill="#2ca02c" />
<circle cx="686.8838763575607" cy="352.81537176274026" r="2" fill="#2ca02c" />
<circle cx="633.5839598997494" cy="351.64578111946537" r="2" fill="#2ca02c" />
<circle cx="612.0300751879699" cy="318.22890559732673" r="2" fill="#2ca02c" />
<circle cx="598.6633249791145" cy="265.76441102756894" r="2" fill="#2ca02c" />
<circle cx="601.8379281537177" cy="253.4001670843777" r="2" fill="#2ca02c" />
<circle cx="649.1228070175439" cy="215.6390977443611" r="2" fill="#2ca02c" />
<circle cx="705.7644110275689" cy="124.24394319131176" r="2" fill="#2ca02c" />
<circle cx="697.4101921470342" cy="89.15622389306606" r="2" fill="#2ca02c" />
<circle cx="645.1127819548873" cy="110.71010860484563" r="2" fill="#2ca02c" />
<circle cx="616.374269005848" cy="116.39097744360919" r="2" fill="#2ca02c" />
<circle cx="572.2639933166249" cy="128.42105263157907" r="2" fill="#2ca02c" />
<circle cx="497.57727652464496" cy="150.64327485380142" r="2" fill="#2ca02c" />
<circle cx="438.76357560568084" cy="170.19214703425257" r="2" fill="#2ca02c" />
<circle cx="422.890559732665" cy="133.26649958228927" r="2" fill="#2ca02c" />
<circle cx="409.69089390142017" cy="114.05179615705941" r="2" fill="#2ca02c" />
<circle cx="332.83208020050125" cy="145.29657477025904" r="2" fill="#2ca02c" />
<circle cx="308.77192982456137" cy="208.12030075187977" r="2" fill="#2ca02c" />
<circle cx="347.8696741854636" cy="264.42773600668346" r="2" fill="#2ca02c" />
<circle cx="333.3333333333333" cy="280.96908939014213" r="2" fill="#2ca02c" />
<circle cx="298.5797827903091" cy="334.93734335839605" r="2" fill="#2ca02c" />
<circle cx="262.3224728487886" cy="380.3842940685047" r="2" fill="#2ca02c" />
<circle cx="246.95071010860482" cy="405.11278195488734" r="2" fill="#2ca02c" />
<circle cx="217.3767752715121" cy="427.5020885547202" r="2" fill="#2ca02c" />
<circle cx="184.62823725981622" cy="408.12030075187977" r="2" fill="#2ca02c" />
<circle cx="185.12949039264828" cy="394.58646616541364" r="2" fill="#2ca02c" />
<circle cx="183.95989974937345" cy="384.3943191311613" r="2" fill="#2ca02c" />
<circle cx="165.91478696741854" cy="320.40100250626574" r="2" fill="#2ca02c" />
<circle cx="121.80451127819549" cy="286.6499582289057" r="2" fill="#2ca02c" />
<circle cx="86.0484544695071" cy="250.0584795321639" r="2" fill="#2ca02c" />
<circle cx="109.77443609022555" cy="147.63575605680887" r="2" fill="#2ca02c" />
<circle cx="182.2890559732665" cy="86.64995822890586" r="2" fill="#2ca02c" />
<circle cx="226.73350041771096" cy="108.03675856307461" r="2" fill="#2ca02c" />
<circle cx="252.46449456975768" cy="119.06432748538026" r="2" fill="#2ca02c" />
<circle cx="291.2280701754386" cy="171.19465329991658" r="2" fill="#2ca02c" />
<circle cx="319.6324143692565" cy="242.2055137844613" r="2" fill="#2ca02c" />
<circle cx="362.7401837928154" cy="246.54970760233925" r="2" fill="#2ca02c" />
<circle cx="435.58897243107765" cy="281.97159565580625" r="2" fill="#2ca02c" />
<circle cx="469.6741854636591" cy="368.52130325814545" r="2" fill="#2ca02c" />
<circle cx="469.3400167084377" cy="443.8763575605682" r="2" fill="#2ca02c" />
<circle cx="477.6942355889724" cy="470.108604845447" r="2" fill="#2ca02c" />
<circle cx="475.85630743525473" cy="483.80952380952385" r="2" fill="#2ca02c" />
<circle cx="461.9883040935672" cy="508.2038429406851" r="2" fill="#2ca02c" />
<circle cx="426.9005847953216" cy="499.8496240601504" r="2" fill="#2ca02c" />
<circle cx="386.1319966583124" cy="446.88387635756067" r="2" fill="#2ca02c" />
<circle cx="386.1319966583124" cy="405.78111946533005" r="2" fill="#2ca02c" />
<rect x="390.16708437761065" y="381.7460317460318" width="20" height="20" fill="black" />
<text x="400.16708437761065" y="376.7460317460318" text-anchor="middle" class="label">DEPOT</text>
<circle cx="400.16708437761065" cy="473.951545530493" r="6" fill="lightblue" stroke="black" stroke-width="1"/>
<text x="400.16708437761065" y="465.951545530493" text-anchor="middle" class="label">1</text>
<polygon points="714.2857142857142,171.84795321637432 708.2857142857142,159.84795321637432 720.2857142857142,159.84795321637432" fill="lightyellow" stroke="black" stroke-width="1"/>
<text x="714.2857142857142" y="157.84795321637432" text-anchor="middle" class="label">2</text>
<circle cx="310.2756892230576" cy="242.7067669172934" r="6" fill="lightblue" stroke="black" stroke-width="1"/>
<text x="310.2756892230576" y="234.7067669172934" text-anchor="middle" class="label">3</text>
<rect x="69.6892230576441" y="193.5989974937345" width="12" height="12" fill="lightgreen" stroke="black" stroke-width="1"/>
<text x="75.6892230576441" y="191.5989974937345" text-anchor="middle" class="label">4</text>
<circle cx="290.22556390977445" cy="524.7451963241438" r="6" fill="lightblue" stroke="black" stroke-width="1"/>
<text x="290.22556390977445" y="516.7451963241438" text-anchor="middle" class="label">5</text>
<circle cx="232.7485380116959" cy="138.44611528822077" r="6" fill="lightblue" stroke="black" stroke-width="1"/>
<text x="232.7485380116959" y="130.44611528822077" text-anchor="middle" class="label">6</text>
<circle cx="372.09690893901416" cy="419.8162071846283" r="6" fill="lightblue" stroke="black" stroke-width="1"/>
<text x="372.09690893901416" y="411.8162071846283" text-anchor="middle" class="label">7</text>
<circle cx="183.95989974937342" cy="525.7477025898079" r="6" fill="lightblue" stroke="black" stroke-width="1"/>
<text x="183.95989974937342" y="517.7477025898079" text-anchor="middle" class="label">8</text>
<circle cx="733.3333333333333" cy="650.7268170426066" r="6" fill="lightblue" stroke="black" stroke-width="1"/>
<text x="733.3333333333333" y="642.7268170426066" text-anchor="middle" class="label">9</text>
<circle cx="536.1737677527151" cy="671.4452798663326" r="6" fill="lightblue" stroke="black" stroke-width="1"/>
<text x="536.1737677527151" y="663.4452798663326" text-anchor="middle" class="label">10</text>
<circle cx="474.6867167919799" cy="312.54803675856317" r="6" fill="lightblue" stroke="black" stroke-width="1"/>
<text x="474.6867167919799" y="304.54803675856317" text-anchor="middle" class="label">11</text>
<circle cx="241.43692564745191" cy="383.0576441102758" r="6" fill="lightblue" stroke="black" stroke-width="1"/>
<text x="241.43692564745191" y="375.0576441102758" text-anchor="middle" class="label">12</text>
<circle cx="453.63408521303256" cy="525.7477025898079" r="6" fill="lightblue" stroke="black" stroke-width="1"/>
<text x="453.63408521303256" y="517.7477025898079" text-anchor="middle" class="label">13</text>
<circle cx="615.7059314954051" cy="363.34168755221395" r="6" fill="lightblue" stroke="black" stroke-width="1"/>
<text x="615.7059314954051" y="355.34168755221395" text-anchor="middle" class="label">14</text>
<polygon points="481.37009189640764,482.95906432748546 475.37009189640764,470.95906432748546 487.37009189640764,470.95906432748546" fill="lightyellow" stroke="black" stroke-width="1"/>
<text x="481.37009189640764" y="468.95906432748546" text-anchor="middle" class="label">15</text>
<circle cx="439.9331662489557" cy="381.05263157894746" r="6" fill="lightblue" stroke="black" stroke-width="1"/>
<text x="439.9331662489557" y="373.05263157894746" text-anchor="middle" class="label">16</text>
<circle cx="396.49122807017545" cy="251.39515455304934" r="6" fill="lightblue" stroke="black" stroke-width="1"/>
<text x="396.49122807017545" y="243.39515455304934" text-anchor="middle" class="label">17</text>
<rect x="196.3391812865497" y="440.88387635756067" width="12" height="12" fill="lightgreen" stroke="black" stroke-width="1"/>
<text x="202.3391812865497" y="438.88387635756067" text-anchor="middle" class="label">18</text>
<circle cx="502.7568922305764" cy="655.405179615706" r="6" fill="lightblue" stroke="black" stroke-width="1"/>
<text x="502.7568922305764" y="647.405179615706" text-anchor="middle" class="label">19</text>
<circle cx="147.20133667502088" cy="272.78195488721815" r="6" fill="lightblue" stroke="black" stroke-width="1"/>
<text x="147.20133667502088" y="264.78195488721815" text-anchor="middle" class="label">20</text>
<circle cx="399.1645781119465" cy="382.389306599833" r="6" fill="lightblue" stroke="black" stroke-width="1"/>
<text x="399.1645781119465" y="374.389306599833" text-anchor="middle" class="label">21</text>
<circle cx="722.3057644110276" cy="365.6808688387637" r="6" fill="lightblue" stroke="black" stroke-width="1"/>
<text x="722.3057644110276" y="357.6808688387637" text-anchor="middle" class="label">22</text>
<circle cx="303.2581453634085" cy="714.21888053467" r="6" fill="lightblue" stroke="black" stroke-width="1"/>
<text x="303.2581453634085" y="706.21888053467" text-anchor="middle" class="label">23</text>
<circle cx="391.14452798663325" cy="133.4335839598998" r="6" fill="lightblue" stroke="black" stroke-width="1"/>
<text x="391.14452798663325" y="125.4335839598998" text-anchor="middle" class="label">24</text>
<rect x="164.2589807852966" y="643.7243107769425" width="12" height="12" fill="lightgreen" stroke="black" stroke-width="1"/>
<text x="170.2589807852966" y="641.7243107769425" text-anchor="middle" class="label">25</text>
<circle cx="721.3032581453634" cy="415.13784461152886" r="6" fill="lightblue" stroke="black" stroke-width="1"/>
<text x="721.3032581453634" y="407.13784461152886" text-anchor="middle" class="label">26</text>
<circle cx="715.2882205513785" cy="525.4135338345866" r="6" fill="lightblue" stroke="black" stroke-width="1"/>
<text x="715.2882205513785" y="517.4135338345866" text-anchor="middle" class="label">27</text>
<rect x="692.5797827903091" y="464.2756892230577" width="12" height="12" fill="lightgreen" stroke="black" stroke-width="1"/>
<text x="698.5797827903091" y="462.2756892230577" text-anchor="middle" class="label">28</text>
<circle cx="683.5421888053468" cy="182.89055973266522" r="6" fill="lightblue" stroke="black" stroke-width="1"/>
<text x="683.5421888053468" y="174.89055973266522" text-anchor="middle" class="label">29</text>
<rect x="268.51963241436926" y="151.15956558061828" width="12" height="12" fill="lightgreen" stroke="black" stroke-width="1"/>
<text x="274.51963241436926" y="149.15956558061828" text-anchor="middle" class="label">30</text>
<polygon points="568.9223057644111,185.2147034252299 562.9223057644111,173.2147034252299 574.9223057644111,173.2147034252299" fill="lightyellow" stroke="black" stroke-width="1"/>
<text x="568.9223057644111" y="171.2147034252299" text-anchor="middle" class="label">31</text>
<circle cx="210.35923141186296" cy="593.249791144528" r="6" fill="lightblue" stroke="black" stroke-width="1"/>
<text x="210.35923141186296" y="585.249791144528" text-anchor="middle" class="label">32</text>
<circle cx="242.43943191311615" cy="514.3859649122808" r="6" fill="lightblue" stroke="black" stroke-width="1"/>
<text x="242.43943191311615" y="506.38596491228077" text-anchor="middle" class="label">33</text>
<circle cx="327.65246449456976" cy="548.4711779448622" r="6" fill="lightblue" stroke="black" stroke-width="1"/>
<text x="327.65246449456976" y="540.4711779448622" text-anchor="middle" class="label">34</text>
<circle cx="186.9674185463659" cy="388.404344193818" r="6" fill="lightblue" stroke="black" stroke-width="1"/>
<text x="186.9674185463659" y="380.404344193818" text-anchor="middle" class="label">35</text>
<circle cx="464.6616541353383" cy="424.49456975772773" r="6" fill="lightblue" stroke="black" stroke-width="1"/>
<text x="464.6616541353383" y="416.49456975772773" text-anchor="middle" class="label">36</text>
<circle cx="358.39598997493727" cy="472.94903926482885" r="6" fill="lightblue" stroke="black" stroke-width="1"/>
<text x="358.39598997493727" y="464.94903926482885" text-anchor="middle" class="label">37</text>
<circle cx="459.9832915622389" cy="168.52130325814562" r="6" fill="lightblue" stroke="black" stroke-width="1"/>
<text x="459.9832915622389" y="160.52130325814562" text-anchor="middle" class="label">38</text>
<circle cx="609.3567251461989" cy="124.07685881370094" r="6" fill="lightblue" stroke="black" stroke-width="1"/>
<text x="609.3567251461989" y="116.07685881370094" text-anchor="middle" class="label">39</text>
<circle cx="727.9866332497911" cy="65.59732664995829" r="6" fill="lightblue" stroke="black" stroke-width="1"/>
<text x="727.9866332497911" y="57.59732664995829" text-anchor="middle" class="label">40</text>
<circle cx="664.4945697577276" cy="621.6541353383459" r="6" fill="lightblue" stroke="black" stroke-width="1"/>
<text x="664.4945697577276" y="613.6541353383459" text-anchor="middle" class="label">41</text>
<circle cx="66.66666666666666" cy="501.0192147034253" r="6" fill="lightblue" stroke="black" stroke-width="1"/>
<text x="66.66666666666666" y="493.0192147034253" text-anchor="middle" class="label">42</text>
<rect x="568.6031746031746" y="365.3617376775273" width="12" height="12" fill="lightgreen" stroke="black" stroke-width="1"/>
<text x="574.6031746031746" y="363.3617376775273" text-anchor="middle" class="label">43</text>
<circle cx="300.9189640768588" cy="620.6516290726818" r="6" fill="lightblue" stroke="black" stroke-width="1"/>
<text x="300.9189640768588" y="612.6516290726818" text-anchor="middle" class="label">44</text>
<circle cx="352.71512113617376" cy="663.4252297410193" r="6" fill="lightblue" stroke="black" stroke-width="1"/>
<text x="352.71512113617376" y="655.4252297410193" text-anchor="middle" class="label">45</text>
<circle cx="96.4076858813701" cy="300.5179615705933" r="6" fill="lightblue" stroke="black" stroke-width="1"/>
<text x="96.4076858813701" y="292.5179615705933" text-anchor="middle" class="label">46</text>
<circle cx="137.84461152882207" cy="685.4803675856308" r="6" fill="lightblue" stroke="black" stroke-width="1"/>
<text x="137.84461152882207" y="677.4803675856308" text-anchor="middle" class="label">47</text>
<rect x="346.71512113617376" y="263.77443609022566" width="12" height="12" fill="lightgreen" stroke="black" stroke-width="1"/>
<text x="352.71512113617376" y="261.77443609022566" text-anchor="middle" class="label">48</text>
<rect x="379.79782790309105" y="451.5772765246451" width="12" height="12" fill="lightgreen" stroke="black" stroke-width="1"/>
<text x="385.79782790309105" y="449.5772765246451" text-anchor="middle" class="label">49</text>
<circle cx="651.4619883040937" cy="339.94987468671684" r="6" fill="lightblue" stroke="black" stroke-width="1"/>
<text x="651.4619883040937" y="331.94987468671684" text-anchor="middle" class="label">50</text>
<polygon points="589.9749373433584,445.53216374269016 583.9749373433584,433.53216374269016 595.9749373433584,433.53216374269016" fill="lightyellow" stroke="black" stroke-width="1"/>
<text x="589.9749373433584" y="431.53216374269016" text-anchor="middle" class="label">51</text>
<circle cx="666.8337510442774" cy="112.71512113617382" r="6" fill="lightblue" stroke="black" stroke-width="1"/>
<text x="666.8337510442774" y="104.71512113617382" text-anchor="middle" class="label">52</text>
<circle cx="252.4644945697577" cy="427.16791979949886" r="6" fill="lightblue" stroke="black" stroke-width="1"/>
<text x="252.4644945697577" y="419.16791979949886" text-anchor="middle" class="label">53</text>
<circle cx="614.7034252297411" cy="248.38763575605697" r="6" fill="lightblue" stroke="black" stroke-width="1"/>
<text x="614.7034252297411" y="240.38763575605697" text-anchor="middle" class="label">54</text>
<circle cx="532.8320802005012" cy="469.2731829573936" r="6" fill="lightblue" stroke="black" stroke-width="1"/>
<text x="532.8320802005012" y="461.2731829573936" text-anchor="middle" class="label">55</text>
<circle cx="220.718462823726" cy="77.62740183792846" r="6" fill="lightblue" stroke="black" stroke-width="1"/>
<text x="220.718462823726" y="69.62740183792846" text-anchor="middle" class="label">56</text>
<circle cx="554.21888053467" cy="312.54803675856317" r="6" fill="lightblue" stroke="black" stroke-width="1"/>
<text x="554.21888053467" y="304.54803675856317" text-anchor="middle" class="label">57</text>
<circle cx="283.2080200501253" cy="377.71094402673356" r="6" fill="lightblue" stroke="black" stroke-width="1"/>
<text x="283.2080200501253" y="369.71094402673356" text-anchor="middle" class="label">58</text>
<circle cx="166.5831244778613" cy="636.3575605680869" r="6" fill="lightblue" stroke="black" stroke-width="1"/>
<text x="166.5831244778613" y="628.3575605680869" text-anchor="middle" class="label">59</text>
<circle cx="659.1478696741855" cy="421.1528822055139" r="6" fill="lightblue" stroke="black" stroke-width="1"/>
<text x="659.1478696741855" y="413.1528822055139" text-anchor="middle" class="label">60</text>
<polygon points="183.29156223893065,406.76858813700926 177.29156223893065,394.76858813700926 189.29156223893065,394.76858813700926" fill="lightyellow" stroke="black" stroke-width="1"/>
<text x="183.29156223893065" y="392.76858813700926" text-anchor="middle" class="label">61</text>
<polygon points="143.85964912280699,101.67251461988326 137.85964912280699,89.67251461988326 149.85964912280699,89.67251461988326" fill="lightyellow" stroke="black" stroke-width="1"/>
<text x="143.85964912280699" y="87.67251461988326" text-anchor="middle" class="label">62</text>
<circle cx="610.6934001670844" cy="702.8571428571429" r="6" fill="lightblue" stroke="black" stroke-width="1"/>
<text x="610.6934001670844" y="694.8571428571429" text-anchor="middle" class="label">63</text>
<circle cx="535.171261487051" cy="132.7652464494572" r="6" fill="lightblue" stroke="black" stroke-width="1"/>
<text x="535.171261487051" y="124.76524644945721" text-anchor="middle" class="label">64</text>
<circle cx="383.12447786132" cy="509.70760233918134" r="6" fill="lightblue" stroke="black" stroke-width="1"/>
<text x="383.12447786132" y="501.70760233918134" text-anchor="middle" class="label">65</text>
<circle cx="451.6290726817042" cy="437.86131996658327" r="6" fill="lightblue" stroke="black" stroke-width="1"/>
<text x="451.6290726817042" y="429.86131996658327" text-anchor="middle" class="label">66</text>
<circle cx="621.3868003341688" cy="379.7159565580619" r="6" fill="lightblue" stroke="black" stroke-width="1"/>
<text x="621.3868003341688" y="371.7159565580619" text-anchor="middle" class="label">67</text>
<circle cx="428.23725981620714" cy="94.67000835421902" r="6" fill="lightblue" stroke="black" stroke-width="1"/>
<text x="428.23725981620714" y="86.67000835421902" text-anchor="middle" class="label">68</text>
<circle cx="103.09106098579781" cy="525.4135338345866" r="6" fill="lightblue" stroke="black" stroke-width="1"/>
<text x="103.09106098579781" y="517.4135338345866" text-anchor="middle" class="label">69</text>
<circle cx="417.5438596491228" cy="171.86299081035952" r="6" fill="lightblue" stroke="black" stroke-width="1"/>
<text x="417.5438596491228" y="163.86299081035952" text-anchor="middle" class="label">70</text>
<circle cx="588.9724310776942" cy="258.41269841269843" r="6" fill="lightblue" stroke="black" stroke-width="1"/>
<text x="588.9724310776942" y="250.41269841269843" text-anchor="middle" class="label">71</text>
<rect x="454.3174603174603" y="628.0183792815372" width="12" height="12" fill="lightgreen" stroke="black" stroke-width="1"/>
<text x="460.3174603174603" y="626.0183792815372" text-anchor="middle" class="label">72</text>
<circle cx="623.3918128654972" cy="108.70509607351744" r="6" fill="lightblue" stroke="black" stroke-width="1"/>
<text x="623.3918128654972" y="100.70509607351744" text-anchor="middle" class="label">73</text>
<circle cx="670.5096073517126" cy="224.32748538011708" r="6" fill="lightblue" stroke="black" stroke-width="1"/>
<text x="670.5096073517126" y="216.32748538011708" text-anchor="middle" class="label">74</text>
<circle cx="470.3425229741018" cy="490.6599832915623" r="6" fill="lightblue" stroke="black" stroke-width="1"/>
<text x="470.3425229741018" y="482.6599832915623" text-anchor="middle" class="label">75</text>
<polygon points="635.7560568086884,320.8872180451129 629.7560568086884,308.8872180451129 641.7560568086884,308.8872180451129" fill="lightyellow" stroke="black" stroke-width="1"/>
<text x="635.7560568086884" y="306.8872180451129" text-anchor="middle" class="label">76</text>
<circle cx="184.62823725981622" cy="368.0200501253134" r="6" fill="lightblue" stroke="black" stroke-width="1"/>
<text x="184.62823725981622" y="360.0200501253134" text-anchor="middle" class="label">77</text>
<circle cx="112.78195488721805" cy="513.3834586466166" r="6" fill="lightblue" stroke="black" stroke-width="1"/>
<text x="112.78195488721805" y="505.38345864661665" text-anchor="middle" class="label">78</text>
<circle cx="535.8395989974938" cy="596.5914786967419" r="6" fill="lightblue" stroke="black" stroke-width="1"/>
<text x="535.8395989974938" y="588.5914786967419" text-anchor="middle" class="label">79</text>
<circle cx="561.5705931495404" cy="646.0484544695071" r="6" fill="lightblue" stroke="black" stroke-width="1"/>
<text x="561.5705931495404" y="638.0484544695071" text-anchor="middle" class="label">80</text>
<circle cx="272.1804511278195" cy="99.68253968253975" r="6" fill="lightblue" stroke="black" stroke-width="1"/>
<text x="272.1804511278195" y="91.68253968253975" text-anchor="middle" class="label">81</text>
<circle cx="524.1436925647453" cy="461.5873015873017" r="6" fill="lightblue" stroke="black" stroke-width="1"/>
<text x="524.1436925647453" y="453.5873015873017" text-anchor="middle" class="label">82</text>
<circle cx="608.3542188805347" cy="273.11612364243945" r="6" fill="lightblue" stroke="black" stroke-width="1"/>
<text x="608.3542188805347" y="265.11612364243945" text-anchor="middle" class="label">83</text>
<circle cx="615.3717627401838" cy="496.6750208855472" r="6" fill="lightblue" stroke="black" stroke-width="1"/>
<text x="615.3717627401838" y="488.6750208855472" text-anchor="middle" class="label">84</text>
<circle cx="616.0401002506266" cy="422.82372598162084" r="6" fill="lightblue" stroke="black" stroke-width="1"/>
<text x="616.0401002506266" y="414.82372598162084" text-anchor="middle" class="label">85</text>
<circle cx="343.0242272347535" cy="259.08103592314126" r="6" fill="lightblue" stroke="black" stroke-width="1"/>
<text x="343.0242272347535" y="251.08103592314126" text-anchor="middle" class="label">86</text>
<circle cx="328.9891395154553" cy="241.70426065162917" r="6" fill="lightblue" stroke="black" stroke-width="1"/>
<text x="328.9891395154553" y="233.70426065162917" text-anchor="middle" class="label">87</text>
<circle cx="116.79197994987469" cy="598.2623224728488" r="6" fill="lightblue" stroke="black" stroke-width="1"/>
<text x="116.79197994987469" y="590.2623224728488" text-anchor="middle" class="label">88</text>
<circle cx="215.37176274018378" cy="721.5705931495406" r="6" fill="lightblue" stroke="black" stroke-width="1"/>
<text x="215.37176274018378" y="713.5705931495406" text-anchor="middle" class="label">89</text>
<circle cx="671.8462823725981" cy="460.2506265664161" r="6" fill="lightblue" stroke="black" stroke-width="1"/>
<text x="671.8462823725981" y="452.2506265664161" text-anchor="middle" class="label">90</text>
<polygon points="465.66416040100245,669.7593984962407 459.66416040100245,657.7593984962407 471.66416040100245,657.7593984962407" fill="lightyellow" stroke="black" stroke-width="1"/>
<text x="465.66416040100245" y="655.7593984962407" text-anchor="middle" class="label">91</text>
<polygon points="256.80868838763575,260.40267335004194 250.80868838763575,248.40267335004194 262.80868838763575,248.40267335004194" fill="lightyellow" stroke="black" stroke-width="1"/>
<text x="256.80868838763575" y="246.40267335004194" text-anchor="middle" class="label">92</text>
<rect x="478.71177944862154" y="708.8872180451128" width="12" height="12" fill="lightgreen" stroke="black" stroke-width="1"/>
<text x="484.71177944862154" y="706.8872180451128" text-anchor="middle" class="label">93</text>
<circle cx="589.6407685881369" cy="652.7318295739349" r="6" fill="lightblue" stroke="black" stroke-width="1"/>
<text x="589.6407685881369" y="644.7318295739349" text-anchor="middle" class="label">94</text>
<circle cx="115.7894736842105" cy="510.7101086048456" r="6" fill="lightblue" stroke="black" stroke-width="1"/>
<text x="115.7894736842105" y="502.7101086048456" text-anchor="middle" class="label">95</text>
<circle cx="313.95154553049287" cy="292.16374269005854" r="6" fill="lightblue" stroke="black" stroke-width="1"/>
<text x="313.95154553049287" y="284.16374269005854" text-anchor="middle" class="label">96</text>
<circle cx="109.1060985797828" cy="599.264828738513" r="6" fill="lightblue" stroke="black" stroke-width="1"/>
<text x="109.1060985797828" y="591.264828738513" text-anchor="middle" class="label">97</text>
<polygon points="474.01837928153714,469.2581453634086 468.01837928153714,457.2581453634086 480.01837928153714,457.2581453634086" fill="lightyellow" stroke="black" stroke-width="1"/>
<text x="474.01837928153714" y="455.2581453634086" text-anchor="middle" class="label">98</text>
<circle cx="182.2890559732665" cy="427.8362573099416" r="6" fill="lightblue" stroke="black" stroke-width="1"/>
<text x="182.2890559732665" y="419.8362573099416" text-anchor="middle" class="label">99</text>
<circle cx="597.3266499582289" cy="718.8972431077694" r="6" fill="lightblue" stroke="black" stroke-width="1"/>
<text x="597.3266499582289" y="710.8972431077694" text-anchor="middle" class="label">100</text>
<rect x="10" y="10" width="150" height="90" fill="white" stroke="black" opacity="0.8"/>
<text x="20" y="30" class="txt">Depot (Square)</text>
<text x="20" y="50" class="txt"><tspan fill="lightblue">●</tspan> C1 Customer</text>
<text x="20" y="70" class="txt"><tspan fill="lightgreen">■</tspan> Pickup (C2)</text>
<text x="20" y="90" class="txt"><tspan fill="lightyellow">▼</tspan> Delivery (C2)</text>
</svg>