<svg xmlns="http://www.w3.org/2000/svg" viewBox="0 0 800 616.3030998851893" style="background-color: white;">
<style>.txt { font-family: sans-serif; font-size: 12px; } .label { font-weight: bold; font-size: 10px; }</style>
<path d="M 360.1990049751244,371.6800612323 Q 384.9598163030999,323.6509758897818 369.7665518561041,271.79487179487177" fill="none" stroke="#d62728" stroke-width="2" stroke-dasharray="5,5" opacity="0.8" />
<text x="384.9598163030999" y="323.6509758897818" fill="#d62728" class="txt" font-weight="bold">D0</text>
<path d="M 360.1990049751244,371.6800612323 Q 574.7034060466896,376.4638346727898 733.3333333333333,231.99387676999606" fill="none" stroke="#e377c2" stroke-width="2" stroke-dasharray="5,5" opacity="0.8" />
<text x="574.7034060466896" y="376.4638346727898" fill="#e377c2" class="txt" font-weight="bold">D1</text>
<polyline points="360.1990049751244,371.6800612323 367.0876387294298,564.9445082280902 66.66666666666667,51.358591657099055 733.3333333333333,231.99387676999606 549.6364332185227,52.88939915805588 493.3792575583621,174.20589360887868 443.24531190202833,143.58974358974353 369.7665518561041,271.79487179487177 360.1990049751244,371.6800612323" fill="none" stroke="#1f77b4" stroke-width="2" />
<circle cx="363.6433218522771" cy="468.3122847301951" r="2" fill="#1f77b4" />
<text x="363.6433218522771" y="463.3122847301951" fill="#1f77b4" class="txt" font-weight="bold">T0</text>
<circle cx="216.87715269804823" cy="308.1515499425946" r="2" fill="#1f77b4" />
<circle cx="399.99999999999994" cy="141.67623421354756" r="2" fill="#1f77b4" />
<circle cx="641.484883275928" cy="142.44163796402597" r="2" fill="#1f77b4" />
<circle cx="521.5078453884424" cy="113.54764638346728" r="2" fill="#1f77b4" />
<circle cx="468.3122847301952" cy="158.8978185993111" r="2" fill="#1f77b4" />
<circle cx="406.5059318790662" cy="207.69230769230765" r="2" fill="#1f77b4" />
<circle cx="364.98277841561423" cy="321.7374665135859" r="2" fill="#1f77b4" />
<polyline points="360.1990049751244,371.6800612323 161.57673172598544,363.6433218522769 718.7906620742441,485.342518178339 650.6697282816685,519.0202831993876 360.1990049751244,371.6800612323" fill="none" stroke="#2ca02c" stroke-width="2" />
<circle cx="260.8878683505549" cy="367.66169154228845" r="2" fill="#2ca02c" />
<text x="260.8878683505549" y="362.66169154228845" fill="#2ca02c" class="txt" font-weight="bold">T1</text>
<circle cx="440.1836969001148" cy="424.49292001530796" r="2" fill="#2ca02c" />
<circle cx="684.7301951779564" cy="502.1814006888633" r="2" fill="#2ca02c" />
<circle cx="505.43436662839645" cy="445.35017221584377" r="2" fill="#2ca02c" />
<rect x="350.1990049751244" y="361.6800612323" width="20" height="20" fill="black" />
<text x="360.1990049751244" y="356.6800612323" text-anchor="middle" class="label">DEPOT</text>
<circle cx="161.57673172598544" cy="363.6433218522769" r="6" fill="lightblue" stroke="black" stroke-width="1"/>
<text x="161.57673172598544" y="355.6433218522769" text-anchor="middle" class="label">1</text>
<circle cx="549.6364332185227" cy="52.88939915805588" r="6" fill="lightblue" stroke="black" stroke-width="1"/>
<text x="549.6364332185227" y="44.88939915805588" text-anchor="middle" class="label">2</text>
<circle cx="733.3333333333333" cy="231.99387676999606" r="6" fill="lightblue" stroke="black" stroke-width="1"/>
<text x="733.3333333333333" y="223.99387676999606" text-anchor="middle" class="label">3</text>
<circle cx="367.0876387294298" cy="564.9445082280902" r="6" fill="lightblue" stroke="black" stroke-width="1"/>
<text x="367.0876387294298" y="556.9445082280902" text-anchor="middle" class="label">4</text>
<circle cx="650.6697282816685" cy="519.0202831993876" r="6" fill="lightblue" stroke="black" stroke-width="1"/>
<text x="650.6697282816685" y="511.02028319938756" text-anchor="middle" class="label">5</text>
<circle cx="493.3792575583621" cy="174.20589360887868" r="6" fill="lightblue" stroke="black" stroke-width="1"/>
<text x="493.3792575583621" y="166.20589360887868" text-anchor="middle" class="label">6</text>
<circle cx="443.24531190202833" cy="143.58974358974353" r="6" fill="lightblue" stroke="black" stroke-width="1"/>
<text x="443.24531190202833" y="135.58974358974353" text-anchor="middle" class="label">7</text>
<circle cx="369.7665518561041" cy="271.79487179487177" r="6" fill="lightblue" stroke="black" stroke-width="1"/>
<text x="369.7665518561041" y="263.79487179487177" text-anchor="middle" class="label">8</text>
<circle cx="718.7906620742441" cy="485.342518178339" r="6" fill="lightblue" stroke="black" stroke-width="1"/>
<text x="718.7906620742441" y="477.342518178339" text-anchor="middle" class="label">9</text>
<circle cx="66.66666666666667" cy="51.358591657099055" r="6" fill="lightblue" stroke="black" stroke-width="1"/>
<text x="66.66666666666667" y="43.358591657099055" text-anchor="middle" class="label">10</text>
<rect x="10" y="10" width="150" height="90" fill="white" stroke="black" opacity="0.8"/>
<text x="20" y="30" class="txt">Depot (Square)</text>
<text x="20" y="50" class="txt"><tspan fill="lightblue">●</tspan> C1 Customer</text>
<text x="20" y="70" class="txt"><tspan fill="lightgreen">■</tspan> Pickup (C2)</text>
<text x="20" y="90" class="txt"><tspan fill="lightyellow">▼</tspan> Delivery (C2)</text>
</svg>