<svg xmlns="http://www.w3.org/2000/svg" viewBox="0 0 800 1000" style="background-color: white;">
<style>.txt { font-family: sans-serif; font-size: 12px; } .label { font-weight: bold; font-size: 10px; }</style>
<polyline points="365.8914728682171,523.9107332624867 318.3462532299742,873.7159050655331 677.5193798449613,916.6666666666666 733.3333333333334,496.90046050301095 608.7855297157623,330.8537017357421 365.8914728682171,523.9107332624867" fill="none" stroke="#1f77b4" stroke-width="2" />
<circle cx="342.11886304909564" cy="698.81331916401" r="2" fill="#1f77b4" />
<text x="342.11886304909564" y="693.81331916401" fill="#1f77b4" class="txt" font-weight="bold">T0</text>
<circle cx="497.9328165374678" cy="895.1912858660999" r="2" fill="#1f77b4" />
<circle cx="705.4263565891474" cy="706.7835635848388" r="2" fill="#1f77b4" />
<circle cx="671.0594315245478" cy="413.8770811193765" r="2" fill="#1f77b4" />
<circle cx="487.3385012919897" cy="427.3822174991144" r="2" fill="#1f77b4" />
<polyline points="365.8914728682171,523.9107332624867 66.66666666666667,399.92915338292585 181.91214470284243,305.17180304640453 243.9276485788114,261.77825008855825 363.82428940568485,286.1317747077577 556.0723514211886,83.33333333333337 557.6227390180879,264.4349982288346 365.8914728682171,523.9107332624867" fill="none" stroke="#2ca02c" stroke-width="2" />
<circle cx="216.27906976744188" cy="461.9199433227063" r="2" fill="#2ca02c" />
<text x="216.27906976744188" y="456.9199433227063" fill="#2ca02c" class="txt" font-weight="bold">T1</text>
<circle cx="124.28940568475454" cy="352.5504782146652" r="2" fill="#2ca02c" />
<circle cx="212.9198966408269" cy="283.4750265674814" r="2" fill="#2ca02c" />
<circle cx="303.8759689922481" cy="273.955012398158" r="2" fill="#2ca02c" />
<circle cx="459.9483204134367" cy="184.73255402054554" r="2" fill="#2ca02c" />
<circle cx="556.8475452196383" cy="173.884165781084" r="2" fill="#2ca02c" />
<circle cx="461.7571059431525" cy="394.17286574566066" r="2" fill="#2ca02c" />
<rect x="355.8914728682171" y="513.9107332624867" width="20" height="20" fill="black" />
<text x="365.8914728682171" y="508.9107332624867" text-anchor="middle" class="label">DEPOT</text>
<circle cx="677.5193798449613" cy="916.6666666666666" r="6" fill="lightblue" stroke="black" stroke-width="1"/>
<text x="677.5193798449613" y="908.6666666666666" text-anchor="middle" class="label">1</text>
<circle cx="318.3462532299742" cy="873.7159050655331" r="6" fill="lightblue" stroke="black" stroke-width="1"/>
<text x="318.3462532299742" y="865.7159050655331" text-anchor="middle" class="label">2</text>
<circle cx="556.0723514211886" cy="83.33333333333337" r="6" fill="lightblue" stroke="black" stroke-width="1"/>
<text x="556.0723514211886" y="75.33333333333337" text-anchor="middle" class="label">3</text>
<circle cx="66.66666666666667" cy="399.92915338292585" r="6" fill="lightblue" stroke="black" stroke-width="1"/>
<text x="66.66666666666667" y="391.92915338292585" text-anchor="middle" class="label">4</text>
<circle cx="557.6227390180879" cy="264.4349982288346" r="6" fill="lightblue" stroke="black" stroke-width="1"/>
<text x="557.6227390180879" y="256.4349982288346" text-anchor="middle" class="label">5</text>
<circle cx="733.3333333333334" cy="496.90046050301095" r="6" fill="lightblue" stroke="black" stroke-width="1"/>
<text x="733.3333333333334" y="488.90046050301095" text-anchor="middle" class="label">6</text>
<circle cx="363.82428940568485" cy="286.1317747077577" r="6" fill="lightblue" stroke="black" stroke-width="1"/>
<text x="363.82428940568485" y="278.1317747077577" text-anchor="middle" class="label">7</text>
<circle cx="181.91214470284243" cy="305.17180304640453" r="6" fill="lightblue" stroke="black" stroke-width="1"/>
<text x="181.91214470284243" y="297.17180304640453" text-anchor="middle" class="label">8</text>
<circle cx="243.9276485788114" cy="261.77825008855825" r="6" fill="lightblue" stroke="black" stroke-width="1"/>
<text x="243.9276485788114" y="253.77825008855825" text-anchor="middle" class="label">9</text>
<circle cx="608.7855297157623" cy="330.8537017357421" r="6" fill="lightblue" stroke="black" stroke-width="1"/>
<text x="608.7855297157623" y="322.8537017357421" text-anchor="middle" class="label">10</text>
<rect x="10" y="10" width="150" height="90" fill="white" stroke="black" opacity="0.8"/>
<text x="20" y="30" class="txt">Depot (Square)</text>
<text x="20" y="50" class="txt"><tspan fill="lightblue">●</tspan> C1 Customer</text>
<text x="20" y="70" class="txt"><tspan fill="lightgreen">■</tspan> Pickup (C2)</text>
<text x="20" y="90" class="txt"><tspan fill="lightyellow">▼</tspan> Delivery (C2)</text>
</svg>