<svg xmlns="http://www.w3.org/2000/svg" viewBox="0 0 800 838.9580973952435" style="background-color: white;">
<style>.txt { font-family: sans-serif; font-size: 12px; } .label { font-weight: bold; font-size: 10px; }</style>
<path d="M 363.00490751226874,423.2540581351453 Q 359.41864854662134,463.42015855039637 384.5224613061533,494.9792374480936" fill="none" stroke="#d62728" stroke-width="2" stroke-dasharray="5,5" opacity="0.8" />
<text x="359.41864854662134" y="463.42015855039637" fill="#d62728" class="txt" font-weight="bold">D0</text>
<path d="M 363.00490751226874,423.2540581351453 Q 359.41864854662134,463.42015855039637 384.5224613061533,494.9792374480936" fill="none" stroke="#e377c2" stroke-width="2" stroke-dasharray="5,5" opacity="0.8" />
<text x="359.41864854662134" y="463.42015855039637" fill="#e377c2" class="txt" font-weight="bold">D1</text>
<polyline points="363.00490751226874,423.2540581351453 324.8773121932805,415.3265383163457 384.5224613061533,494.9792374480936 478.52019630049074,518.0067950169876 632.9180822952056,520.6493016232541 612.9105322763306,496.4892412231031 597.432993582484,452.69913174782937 715.5907889769725,430.8040770101925 676.7081917704793,632.0120800302001 66.66666666666666,769.0449226123066 124.80181200453002,718.8372970932428 363.00490751226874,423.2540581351453" fill="none" stroke="#1f77b4" stroke-width="2" />
<circle cx="343.9411098527746" cy="419.2902982257455" r="2" fill="#1f77b4" />
<text x="343.9411098527746" y="414.2902982257455" fill="#1f77b4" class="txt" font-weight="bold">T0</text>
<circle cx="354.6998867497169" cy="455.15288788221966" r="2" fill="#1f77b4" />
<circle cx="431.52132880332204" cy="506.4930162325406" r="2" fill="#1f77b4" />
<circle cx="555.7191392978482" cy="519.3280483201208" r="2" fill="#1f77b4" />
<circle cx="622.9143072857681" cy="508.56927142317863" r="2" fill="#1f77b4" />
<circle cx="605.1717629294074" cy="474.59418648546625" r="2" fill="#1f77b4" />
<circle cx="656.5118912797282" cy="441.7516043790109" r="2" fill="#1f77b4" />
<circle cx="696.1494903737259" cy="531.4080785201963" r="2" fill="#1f77b4" />
<circle cx="371.68742921857296" cy="700.5285013212533" r="2" fill="#1f77b4" />
<circle cx="95.73423933559835" cy="743.9411098527746" r="2" fill="#1f77b4" />
<circle cx="243.90335975839938" cy="571.0456776141941" r="2" fill="#1f77b4" />
<polyline points="363.00490751226874,423.2540581351453 425.6700641751604,277.1611929029823 516.6477916194791,248.8486221215553 531.3703284258211,69.91317478293695 595.1679879199697,102.37825594563981 644.6206115515289,161.64590411476036 733.3333333333333,169.95092487731222 475.8776896942242,231.1060777651944 127.44431861079653,280.9362023405058 102.5292563231408,371.91392978482446 527.5953189882974,461.38165345413364 363.00490751226874,423.2540581351453" fill="none" stroke="#2ca02c" stroke-width="2" />
<circle cx="394.3374858437146" cy="350.2076255190638" r="2" fill="#2ca02c" />
<text x="394.3374858437146" y="345.2076255190638" fill="#2ca02c" class="txt" font-weight="bold">T1</text>
<circle cx="471.15892789731976" cy="263.0049075122688" r="2" fill="#2ca02c" />
<circle cx="524.0090600226501" cy="159.38089845224613" r="2" fill="#2ca02c" />
<circle cx="563.2691581728955" cy="86.14571536428838" r="2" fill="#2ca02c" />
<circle cx="619.8942997357493" cy="132.01208003020008" r="2" fill="#2ca02c" />
<circle cx="688.9769724424311" cy="165.7984144960363" r="2" fill="#2ca02c" />
<circle cx="604.6055115137788" cy="200.52850132125332" r="2" fill="#2ca02c" />
<circle cx="301.6610041525104" cy="256.0211400528501" r="2" fill="#2ca02c" />
<circle cx="114.98678746696866" cy="326.4250660626651" r="2" fill="#2ca02c" />
<circle cx="315.0622876557191" cy="416.64779161947905" r="2" fill="#2ca02c" />
<circle cx="445.30011325028306" cy="442.3178557946395" r="2" fill="#2ca02c" />
<rect x="353.00490751226874" y="413.2540581351453" width="20" height="20" fill="black" />
<text x="363.00490751226874" y="408.2540581351453" text-anchor="middle" class="label">DEPOT</text>
<circle cx="595.1679879199697" cy="102.37825594563981" r="6" fill="lightblue" stroke="black" stroke-width="1"/>
<text x="595.1679879199697" y="94.37825594563981" text-anchor="middle" class="label">1</text>
<circle cx="324.8773121932805" cy="415.3265383163457" r="6" fill="lightblue" stroke="black" stroke-width="1"/>
<text x="324.8773121932805" y="407.3265383163457" text-anchor="middle" class="label">2</text>
<circle cx="632.9180822952056" cy="520.6493016232541" r="6" fill="lightblue" stroke="black" stroke-width="1"/>
<text x="632.9180822952056" y="512.6493016232541" text-anchor="middle" class="label">3</text>
<polygon points="676.7081917704793,638.0120800302001 670.7081917704793,626.0120800302001 682.7081917704793,626.0120800302001" fill="lightyellow" stroke="black" stroke-width="1"/>
<text x="676.7081917704793" y="624.0120800302001" text-anchor="middle" class="label">4</text>
<circle cx="597.432993582484" cy="452.69913174782937" r="6" fill="lightblue" stroke="black" stroke-width="1"/>
<text x="597.432993582484" y="444.69913174782937" text-anchor="middle" class="label">5</text>
<circle cx="124.80181200453002" cy="718.8372970932428" r="6" fill="lightblue" stroke="black" stroke-width="1"/>
<text x="124.80181200453002" y="710.8372970932428" text-anchor="middle" class="label">6</text>
<circle cx="66.66666666666666" cy="769.0449226123066" r="6" fill="lightblue" stroke="black" stroke-width="1"/>
<text x="66.66666666666666" y="761.0449226123066" text-anchor="middle" class="label">7</text>
<circle cx="531.3703284258211" cy="69.91317478293695" r="6" fill="lightblue" stroke="black" stroke-width="1"/>
<text x="531.3703284258211" y="61.91317478293695" text-anchor="middle" class="label">8</text>
<circle cx="127.44431861079653" cy="280.9362023405058" r="6" fill="lightblue" stroke="black" stroke-width="1"/>
<text x="127.44431861079653" y="272.9362023405058" text-anchor="middle" class="label">9</text>
<circle cx="475.8776896942242" cy="231.1060777651944" r="6" fill="lightblue" stroke="black" stroke-width="1"/>
<text x="475.8776896942242" y="223.1060777651944" text-anchor="middle" class="label">10</text>
<circle cx="733.3333333333333" cy="169.95092487731222" r="6" fill="lightblue" stroke="black" stroke-width="1"/>
<text x="733.3333333333333" y="161.95092487731222" text-anchor="middle" class="label">11</text>
<circle cx="384.5224613061533" cy="494.9792374480936" r="6" fill="lightblue" stroke="black" stroke-width="1"/>
<text x="384.5224613061533" y="486.9792374480936" text-anchor="middle" class="label">12</text>
<polygon points="527.5953189882974,467.38165345413364 521.5953189882974,455.38165345413364 533.5953189882974,455.38165345413364" fill="lightyellow" stroke="black" stroke-width="1"/>
<text x="527.5953189882974" y="453.38165345413364" text-anchor="middle" class="label">13</text>
<circle cx="478.52019630049074" cy="518.0067950169876" r="6" fill="lightblue" stroke="black" stroke-width="1"/>
<text x="478.52019630049074" y="510.00679501698755" text-anchor="middle" class="label">14</text>
<rect x="96.5292563231408" y="365.91392978482446" width="12" height="12" fill="lightgreen" stroke="black" stroke-width="1"/>
<text x="102.5292563231408" y="363.91392978482446" text-anchor="middle" class="label">15</text>
<circle cx="644.6206115515289" cy="161.64590411476036" r="6" fill="lightblue" stroke="black" stroke-width="1"/>
<text x="644.6206115515289" y="153.64590411476036" text-anchor="middle" class="label">16</text>
<rect x="606.9105322763306" y="490.4892412231031" width="12" height="12" fill="lightgreen" stroke="black" stroke-width="1"/>
<text x="612.9105322763306" y="488.4892412231031" text-anchor="middle" class="label">17</text>
<circle cx="425.6700641751604" cy="277.1611929029823" r="6" fill="lightblue" stroke="black" stroke-width="1"/>
<text x="425.6700641751604" y="269.1611929029823" text-anchor="middle" class="label">18</text>
<circle cx="516.6477916194791" cy="248.8486221215553" r="6" fill="lightblue" stroke="black" stroke-width="1"/>
<text x="516.6477916194791" y="240.8486221215553" text-anchor="middle" class="label">19</text>
<circle cx="715.5907889769725" cy="430.8040770101925" r="6" fill="lightblue" stroke="black" stroke-width="1"/>
<text x="715.5907889769725" y="422.8040770101925" text-anchor="middle" class="label">20</text>
<rect x="10" y="10" width="150" height="90" fill="white" stroke="black" opacity="0.8"/>
<text x="20" y="30" class="txt">Depot (Square)</text>
<text x="20" y="50" class="txt"><tspan fill="lightblue">●</tspan> C1 Customer</text>
<text x="20" y="70" class="txt"><tspan fill="lightgreen">■</tspan> Pickup (C2)</text>
<text x="20" y="90" class="txt"><tspan fill="lightyellow">▼</tspan> Delivery (C2)</text>
</svg>